<svg xmlns="http://www.w3.org/2000/svg" width="140" height="70" viewBox="0 0 150 75">
<path fill="#DD2D38" d="M16.2 44.1c4.2 0 6.7-2.2 9.5-6.8 1.6-2.7 3-6 5.6-6s5.1 1.6 7.8 1.6c3.2 0 5.9-5.3 5.9-7 0-2-1.5-3.5-7.3-5l-2 4.2c-3.3 0-5.9 2.3-9 6.9-1.6 2.5-3.2 4.7-6.6 4.7a8.1 8.1 0 0 1-4.7-1.4L11.8 43a7 7 0 0 0 4.4 1.1ZM6 40.1l3.6-7.7c-3-1.2-6.6-3.2-6.6-7.3a4.7 4.7 0 0 1 4.7-4.7c2.5 0 5.1 1.6 7.9 1.6 3 0 5.8-5.3 5.8-7s-1.3-3.1-5.9-4.5A6.7 6.7 0 0 1 21 7.7L24.5 0c-5.9 0-11.2 10.6-12.3 14.2-3.5 0-6.5 2.4-8.6 5.5A16.7 16.7 0 0 0 0 29.4a12 12 0 0 0 6 10.6ZM29.8 52.1c1.4-2 2.4-4.3 2.4-5.7 0-1.6-1.4-2.7-4.2-4l-3.1 6.7a15.1 15.1 0 0 1 4.9 3ZM26 61c1.6-2 2.6-4.2 2.6-5.7 0-1.6-1.4-2.7-4.3-4L21.2 58a15 15 0 0 1 4.9 3Z" />
<path fill="#B1A169" d="M147.4 52.1c1.5-2 2.6-4.3 2.6-5.7 0-1.6-1.4-2.7-4.3-4l-3.1 6.7a15.1 15.1 0 0 1 4.8 3ZM102.8 37.6c1.4-2 2.5-4.2 2.5-5.7 0-1.6-1.4-2.7-4.3-3.9l-3 6.6a14.4 14.4 0 0 1 4.8 3ZM123.6 75c4.4 0 6.5-2.3 9.5-6.9 2.2-3.2 3.9-4.8 6.7-4.8a8.4 8.4 0 0 1 4.8 1.6l3.4-7.2a7.7 7.7 0 0 0-4.8-1.7c-3.4 0-5.8 2.3-9 6.8-1.6 2.6-3.2 4.8-6.5 4.8a8.4 8.4 0 0 1-4.8-1.4l-3.6 7.6a6.8 6.8 0 0 0 4.3 1.2ZM116.6 72.6l3.6-7.7c-3-1.2-6.6-3.2-6.6-7.3a4.7 4.7 0 0 1 4.7-4.7c2.6 0 5.1 1.6 7.9 1.6 3 0 5.7-5.4 5.7-7 0-2-1.5-3.5-7.2-5l-2 4.1c-3.4 0-6.2 2.5-8.5 5.5a16.7 16.7 0 0 0-3.6 9.9 12 12 0 0 0 6 10.6ZM96.7 75c4.7 0 7-6 9-11.1l5.2-13.7c-2 0-3 1.5-4 4.1l-3.6 9.2c-1 2.4-2.6 3.6-4.4 3.6a6.3 6.3 0 0 1-1.3-.2L94 74.4a10 10 0 0 0 2.7.5ZM87.2 52.1c1.5-2 2.6-4.3 2.6-5.7 0-1.6-1.4-2.7-4.3-4l-3.2 6.7a14.1 14.1 0 0 1 5 3ZM75.6 75c4.3 0 6.7-2.2 9.5-6.9 1.7-2.6 3.5-5 6-5 2 0 2 .7 3.5.7 3.9 0 6.6-3.9 8-7.5a17.3 17.3 0 0 0 1.4-6.2c0-4-2.9-7.7-5.8-7.7-1.3 0-2 1.4-3 3.6-1 1.9-1.5 3.1-1.5 4s.3 1.5 2 2c2.4.7 4.8 1.3 4.8 4.4a2.6 2.6 0 0 1-.6 1.4 7.6 7.6 0 0 0-4.7-1.8c-3.5 0-5.8 2.3-9 6.8-1.6 2.6-3.2 4.8-6.6 4.8a8.6 8.6 0 0 1-4.8-1.4l-3.5 7.6a7 7 0 0 0 4.3 1.2ZM64 75c4.8 0 7-6 9-11.1l5.3-13.7c-2 0-3 1.5-4 4.1l-3.7 9.2c-.9 2.4-2.5 3.6-4.3 3.6a6.3 6.3 0 0 1-1.4-.2l-3.6 7.6a10 10 0 0 0 2.8.5ZM51.2 75c4.4 0 6.7-2.2 9.6-6.9 2-3.3 3-4 4.5-4.6l3.5-7.5c-2.3.5-3.8 2.2-7 6.8-1.6 2.6-3 4.7-6.5 4.7a8.2 8.2 0 0 1-4.8-1.4L47 74a6.8 6.8 0 0 0 4.2 1.1ZM24 75a36 36 0 0 0 24.8-10.8c8.4-7.5 14.8-14.3 22-13.6l3.6-7.7a5.9 5.9 0 0 0-2.5-.4c-5 0-9.7 4.2-18.3 11.8-9 8-16.1 13.3-28.2 13.3C14 67.6 6.6 61.8 6.6 52s7-18.2 13-24l-.7-.8C9.3 36 3.3 45.6 3.3 55.7 3.3 64.6 9.1 75 24 75Z" />
</svg>
